<?xml version="1.0" encoding="iso-8859-1"?>
<!-- Uploaded to: SVG Repo, www.svgrepo.com, Generator: SVG Repo Mixer Tools -->
<svg height="800px" width="800px" version="1.1" id="Layer_1" xmlns="http://www.w3.org/2000/svg" xmlns:xlink="http://www.w3.org/1999/xlink" 
	 viewBox="0 0 512 512" xml:space="preserve">
<g>
	<g>
		<path style="fill:#CBD4D8;" d="M105.931,132.414c-4.882,0-8.828-3.955-8.828-8.828V97.103c0-4.873,3.946-8.828,8.828-8.828
			c4.882,0,8.828,3.955,8.828,8.828v26.483C114.759,128.459,110.813,132.414,105.931,132.414"/>
		<path style="fill:#CBD4D8;" d="M119.172,97.103H92.69c-7.309,0-13.241-5.932-13.241-13.241v-8.828
			c0-7.309,5.932-13.241,13.241-13.241h26.483c7.309,0,13.241,5.932,13.241,13.241v8.828
			C132.414,91.171,126.482,97.103,119.172,97.103"/>
	</g>
	<path style="fill:#161F23;" d="M406.069,123.586h-42.761c-6.162,0-11.705-3.752-13.992-9.472l-9.949-31.197
		c-2.331-7.327-9.137-12.297-16.825-12.297H189.458c-7.689,0-14.495,4.97-16.825,12.297l-9.949,31.197
		c-2.286,5.72-7.83,9.472-13.992,9.472h-42.761c-19.5,0-35.31,15.81-35.31,35.31v17.655h370.759v-17.655
		C441.379,139.396,425.569,123.586,406.069,123.586"/>
	<polygon style="fill:#FFFFFF;" points="229.517,141.241 282.483,141.241 282.483,105.931 229.517,105.931 	"/>
	<path style="fill:#546A79;" d="M459.034,441.379H52.966C23.711,441.379,0,417.668,0,388.414V229.517
		c0-29.255,23.711-52.966,52.966-52.966h406.069c29.255,0,52.966,23.711,52.966,52.966v158.897
		C512,417.668,488.289,441.379,459.034,441.379"/>
	<g>
		<path style="fill:#283238;" d="M150.246,388.41L150.246,388.41H0.001c0,29.255,23.711,52.966,52.966,52.966h203.034
			C212.719,441.376,174.408,420.516,150.246,388.41"/>
		<path style="fill:#283238;" d="M361.751,388.414L361.751,388.414c-24.161,32.106-62.473,52.966-105.754,52.966h203.034
			c29.255,0,52.966-23.711,52.966-52.966H361.751z"/>
		<path style="fill:#283238;" d="M150.246,229.521c24.161-32.106,62.473-52.966,105.754-52.966H52.966
			c-29.255,0-52.966,23.711-52.966,52.966H150.246L150.246,229.521z"/>
		<path style="fill:#283238;" d="M361.754,229.521L361.754,229.521h150.246c0-29.255-23.711-52.966-52.966-52.966H255.999
			C299.281,176.555,337.592,197.415,361.754,229.521"/>
	</g>
	<path style="fill:#434C6D;" d="M388.414,308.966c0,73.128-59.286,132.414-132.414,132.414s-132.414-59.286-132.414-132.414
		S182.872,176.552,256,176.552S388.414,235.838,388.414,308.966"/>
	<path style="fill:#7383BF;" d="M256,185.379c-68.149,0-123.586,55.437-123.586,123.586S187.851,432.552,256,432.552
		s123.586-55.437,123.586-123.586S324.149,185.379,256,185.379 M256,450.207c-77.877,0-141.241-63.364-141.241-141.241
		S178.123,167.724,256,167.724s141.241,63.364,141.241,141.241S333.877,450.207,256,450.207"/>
	<path style="fill:#E0E1E2;" d="M335.448,308.966c0,43.882-35.566,79.448-79.448,79.448s-79.448-35.566-79.448-79.448
		s35.566-79.448,79.448-79.448S335.448,265.084,335.448,308.966"/>
	<g>
		<path style="fill:#7383BF;" d="M256,238.345c-38.938,0-70.621,31.682-70.621,70.621s31.682,70.621,70.621,70.621
			s70.621-31.682,70.621-70.621S294.938,238.345,256,238.345 M256,397.241c-48.675,0-88.276-39.601-88.276-88.276
			S207.325,220.69,256,220.69s88.276,39.601,88.276,88.276S304.675,397.241,256,397.241"/>
		<path style="fill:#7383BF;" d="M220.69,308.966c-4.882,0-8.828-3.955-8.828-8.828c0-19.474,15.837-35.31,35.31-35.31
			c4.882,0,8.828,3.955,8.828,8.828c0,4.873-3.946,8.828-8.828,8.828c-9.737,0-17.655,7.918-17.655,17.655
			C229.517,305.011,225.571,308.966,220.69,308.966"/>
	</g>
	<path style="fill:#ECBA16;" d="M70.621,300.138H52.966c-4.873,0-8.828-3.955-8.828-8.828v-17.655c0-4.873,3.955-8.828,8.828-8.828
		h17.655c4.873,0,8.828,3.955,8.828,8.828v17.655C79.448,296.183,75.494,300.138,70.621,300.138"/>
	<g>
		<path style="fill:#283238;" d="M459.034,300.138h-17.655c-4.873,0-8.828-3.955-8.828-8.828v-17.655
			c0-4.873,3.955-8.828,8.828-8.828h17.655c4.873,0,8.828,3.955,8.828,8.828v17.655
			C467.862,296.183,463.907,300.138,459.034,300.138"/>
		<path style="fill:#283238;" d="M88.276,344.276H35.31c-4.882,0-8.828-3.955-8.828-8.828s3.946-8.828,8.828-8.828h52.966
			c4.882,0,8.828,3.955,8.828,8.828S93.158,344.276,88.276,344.276"/>
	</g>
	<g>
		<path style="fill:#161F23;" d="M427.38,176.552h-21.31c0,2.26,0.865,4.52,2.586,6.241l46.724,46.724h21.31
			c0-2.26-0.865-4.52-2.586-6.241L427.38,176.552z"/>
		<path style="fill:#161F23;" d="M383.242,176.552h-21.31c0,2.26,0.865,4.52,2.586,6.241l46.724,46.724h21.31
			c0-2.26-0.865-4.52-2.586-6.241L383.242,176.552z"/>
		<path style="fill:#161F23;" d="M141.241,414.897c-4.882,0-8.828,3.955-8.828,8.828v17.655h17.655v-17.655
			C150.069,418.851,146.123,414.897,141.241,414.897"/>
		<path style="fill:#161F23;" d="M105.931,414.897c-4.882,0-8.828,3.955-8.828,8.828v17.655h17.655v-17.655
			C114.759,418.851,110.813,414.897,105.931,414.897"/>
		<path style="fill:#161F23;" d="M70.621,414.897c-4.882,0-8.828,3.955-8.828,8.828v17.655h17.655v-17.655
			C79.448,418.851,75.502,414.897,70.621,414.897"/>
	</g>
</g>
</svg>